HIERARCHY
ROOT Hips
{
	OFFSET 0.00 0.00 0.00
	CHANNELS 6 Xposition Yposition Zposition Xrotation Yrotation Zrotation
	JOINT RightUpLeg
	{
		OFFSET -3.76699 0.00000 0.00000
		CHANNELS 3 Xrotation Yrotation Zrotation
		JOINT RightLeg
		{
			OFFSET 0.00000 -18.01768 0.00000
			CHANNELS 3 Xrotation Yrotation Zrotation
			JOINT RightFoot
			{
				OFFSET 0.00000 -16.88108 0.00000
				CHANNELS 3 Xrotation Yrotation Zrotation
				JOINT RightToeBase
				{
					OFFSET 0.00000 -1.49359 5.57418
					CHANNELS 3 Xrotation Yrotation Zrotation
					End Site
					{
						OFFSET 0.00000 0.00000 2.95275
					}
				}
			}
		}
	}
	JOINT LeftUpLeg
	{
		OFFSET 3.76699 0.00000 0.00000
		CHANNELS 3 Xrotation Yrotation Zrotation
		JOINT LeftLeg
		{
			OFFSET 0.00000 -18.01768 0.00000
			CHANNELS 3 Xrotation Yrotation Zrotation
			JOINT LeftFoot
			{
				OFFSET 0.00000 -16.88108 0.00000
				CHANNELS 3 Xrotation Yrotation Zrotation
				JOINT LeftToeBase
				{
					OFFSET 0.00000 -1.49359 5.57418
					CHANNELS 3 Xrotation Yrotation Zrotation
					End Site
					{
						OFFSET 0.00000 0.00000 2.95275
					}
				}
			}
		}
	}
	JOINT Spine
	{
		OFFSET 0.00000 7.77970 0.00000
		CHANNELS 3 Xrotation Yrotation Zrotation
		JOINT RightShoulder
		{
			OFFSET 0.00000 10.94176 0.00000
			CHANNELS 3 Xrotation Yrotation Zrotation
			JOINT RightArm
			{
				OFFSET -7.70894 0.00000 0.00000
				CHANNELS 3 Xrotation Yrotation Zrotation
				JOINT RightForeArm
				{
					OFFSET -11.52135 0.00000 0.00000
					CHANNELS 3 Yrotation Zrotation Xrotation
					JOINT RightHand
					{
						OFFSET -10.17590 0.00000 0.00000
						CHANNELS 3 Xrotation Yrotation Zrotation
						End Site
						{
							OFFSET -3.93700 0.00000 0.00000
						}
						JOINT RightHandThumb1
						{
							OFFSET 0.00000 0.00000 0.00000
							CHANNELS 3 Xrotation Zrotation Yrotation
							End Site
							{
								OFFSET 0.00000 0.00000 3.93700
							}
						}
					}
				}
			}
		}
		JOINT LeftShoulder
		{
			OFFSET 0.00000 10.94176 0.00000
			CHANNELS 3 Xrotation Yrotation Zrotation
			JOINT LeftArm
			{
				OFFSET 7.70894 0.00000 0.00000
				CHANNELS 3 Xrotation Yrotation Zrotation
				JOINT LeftForeArm
				{
					OFFSET 11.52135 0.00000 0.00000
					CHANNELS 3 Yrotation Zrotation Xrotation
					JOINT LeftHand
					{
						OFFSET 10.17590 0.00000 0.00000
						CHANNELS 3 Xrotation Yrotation Zrotation
						End Site
						{
							OFFSET 3.93700 0.00000 0.00000
						}
						JOINT LeftHandThumb1
						{
							OFFSET 0.00000 0.00000 0.00000
							CHANNELS 3 Xrotation Zrotation Yrotation
							End Site
							{
								OFFSET 0.00000 0.00000 3.93700
							}
						}
					}
				}
			}
		}
		JOINT Head
		{
			OFFSET 0.00000 16.64604 0.00000
			CHANNELS 3 Xrotation Yrotation Zrotation
			End Site
			{
				OFFSET 0.00000 4.52755 0.00000
			}
		}
	}
}
MOTION
Frames:	18
Frame Time: 0.008333
-3.4178 3.7289 -3.4296 -50.4904 -13.0168 -13.0250 -41.8752 13.9531 23.4046 -2.2498 0.0000 -0.0000 25.4050 -11.0480 27.1823 -5.3099 0.0000 -0.0000 -93.1929 32.9378 9.7784 123.6060 -0.0000 -0.0000 10.2897 14.8412 -28.2185 9.4048 -0.0000 -0.0000 66.3204 -42.7444 9.8606 42.8609 -24.6053 14.9302 -32.8833 -7.1892 83.1512 -7.3647 0.0000 -40.4427 -22.1263 -16.0048 -55.8581 33.1476 -0.0000 -26.2537 12.9864 -13.5657 32.2801 -43.6531 24.7827 -38.6167 -13.5670 0.0000 -45.5945 2.5912 -11.4002 12.8958 32.8623 0.0000 24.3270 -6.8691 35.4258 4.1261
-3.4181 3.7267 -3.4297 -50.5082 -13.0152 -13.0223 -41.8633 13.9431 23.3981 -2.2291 0.0000 -0.0000 25.3867 -11.0730 27.2253 -5.2384 0.0000 -0.0000 -93.1603 32.9292 9.7508 123.6008 -0.0000 -0.0000 10.3506 14.8471 -28.3993 9.1360 -0.0000 -0.0000 66.3870 -42.7049 9.9055 42.8832 -24.6018 14.9389 -32.9172 -7.1136 83.1713 -7.4127 -0.0000 -40.5357 -22.1081 -16.0484 -55.7632 33.1476 -0.0000 -26.2537 13.0070 -13.5577 32.3161 -43.6963 24.7620 -38.6417 -13.5749 0.0000 -45.5024 2.5884 -11.3757 12.9089 32.8623 0.0000 24.3270 -6.4837 35.7547 3.7862
-3.4195 3.7257 -3.4297 -50.5114 -13.0187 -13.0374 -41.8538 13.8962 23.4076 -2.2232 0.0000 -0.0000 25.4188 -11.0699 27.2023 -5.3127 0.0000 -0.0000 -93.1624 32.9081 9.7384 123.6035 -0.0000 -0.0000 10.3631 14.8437 -28.3731 9.1681 -0.0000 -0.0000 66.4696 -42.6480 10.0014 42.8576 -24.6174 14.9365 -32.9092 -7.1196 83.1687 -7.4157 -0.0000 -40.6050 -21.9839 -16.0019 -55.6724 33.1476 -0.0000 -26.2537 12.9637 -13.5562 32.2743 -43.7294 24.7079 -38.6366 -13.5753 0.0000 -45.4500 2.5809 -11.3587 12.8913 32.8623 0.0000 24.3270 -6.1136 36.1550 3.4559
-3.4205 3.7254 -3.4288 -50.5402 -13.0297 -13.0515 -41.8275 13.8675 23.4214 -2.2041 0.0000 -0.0000 25.4182 -11.0893 27.2343 -5.2840 0.0000 -0.0000 -93.1196 32.8797 9.7049 123.6031 -0.0000 -0.0000 10.3001 14.8072 -28.3241 9.2091 -0.0000 -0.0000 66.5601 -42.5889 10.0747 42.8494 -24.6476 14.9420 -32.9182 -7.1592 83.1749 -7.3885 -0.0000 -40.5107 -22.0824 -16.1005 -55.6448 33.1476 -0.0000 -26.2537 12.9170 -13.5482 32.2417 -43.7186 24.6144 -38.6544 -13.5611 0.0000 -45.4537 2.5726 -11.3728 12.8360 32.8623 0.0000 24.3270 -5.7714 36.4835 3.1125
-3.4226 3.7268 -3.4266 -50.5819 -13.0563 -13.0618 -41.7836 13.8517 23.4432 -2.2006 0.0000 -0.0000 25.4271 -11.1059 27.2495 -5.2373 0.0000 -0.0000 -93.1062 32.9037 9.7624 123.6170 -0.0000 -0.0000 10.2758 14.8105 -28.2085 9.3164 -0.0000 -0.0000 66.6262 -42.5333 10.1007 42.8321 -24.6520 14.9465 -32.9117 -7.0834 83.1733 -7.4204 0.0000 -40.6527 -22.0041 -16.0887 -55.5590 33.1476 -0.0000 -26.2537 12.8940 -13.5414 32.2316 -43.7220 24.5539 -38.6770 -13.5546 -0.0000 -45.4774 2.5572 -11.4205 12.7105 32.8623 0.0000 24.3270 -5.4403 36.7226 2.8270
-3.4244 3.7261 -3.4257 -50.6015 -13.0703 -13.0668 -41.7621 13.8408 23.4519 -2.2038 0.0000 -0.0000 25.4399 -11.1170 27.2567 -5.2152 0.0000 -0.0000 -93.1096 32.9084 9.7898 123.6243 -0.0000 -0.0000 10.2843 14.7895 -28.1493 9.4273 -0.0000 -0.0000 66.6543 -42.4950 10.1196 42.8496 -24.6197 14.9223 -32.9074 -7.0626 83.1899 -7.4073 0.0000 -40.7146 -22.0472 -16.1448 -55.5263 33.1476 -0.0000 -26.2537 12.8963 -13.5643 32.2359 -43.7023 24.5242 -38.6876 -13.5670 -0.0000 -45.4602 2.5308 -11.4264 12.5771 32.8623 0.0000 24.3270 -5.0837 36.8015 2.5326
-3.4263 3.7251 -3.4241 -50.6171 -13.0880 -13.0822 -41.7408 13.8034 23.4681 -2.2005 0.0000 -0.0000 25.4426 -11.0995 27.2727 -5.2099 0.0000 -0.0000 -93.1091 32.8945 9.7983 123.6364 -0.0000 -0.0000 10.2579 14.7616 -28.0617 9.4761 -0.0000 -0.0000 66.6982 -42.4394 10.1702 42.8293 -24.6068 14.8893 -32.8870 -7.0335 83.1992 -7.4272 0.0000 -40.7885 -21.9956 -16.1633 -55.4270 33.1476 -0.0000 -26.2537 12.8709 -13.5742 32.2127 -43.6786 24.4566 -38.7103 -13.5585 -0.0000 -45.4649 2.5252 -11.4283 12.5483 32.8623 0.0000 24.3270 -4.7137 36.9700 2.2229
-3.4284 3.7250 -3.4219 -50.6369 -13.0942 -13.0976 -41.7084 13.7693 23.4801 -2.2069 0.0000 -0.0000 25.4529 -11.1215 27.2953 -5.2730 0.0000 -0.0000 -93.0847 32.8745 9.7847 123.6462 -0.0000 -0.0000 10.2171 14.7361 -28.0310 9.4749 -0.0000 -0.0000 66.7511 -42.3847 10.2313 42.8185 -24.5948 14.8618 -32.8680 -7.0233 83.2046 -7.4284 0.0000 -40.9082 -21.9238 -16.1436 -55.3621 33.1476 -0.0000 -26.2537 12.8536 -13.5807 32.1863 -43.6345 24.3641 -38.7435 -13.5619 0.0000 -45.5127 2.5263 -11.4103 12.5725 32.8623 0.0000 24.3270 -4.3422 37.1258 1.9469
-3.4298 3.7260 -3.4198 -50.6644 -13.1019 -13.1293 -41.6623 13.7195 23.5000 -2.2194 0.0000 -0.0000 25.4504 -11.1042 27.2866 -5.2632 0.0000 -0.0000 -93.0461 32.8343 9.7594 123.6591 -0.0000 -0.0000 10.1586 14.7111 -28.0047 9.5302 -0.0000 -0.0000 66.8211 -42.2796 10.3113 42.7871 -24.6185 14.8331 -32.8312 -7.0345 83.2209 -7.4156 -0.0000 -40.9495 -21.9430 -16.2114 -55.2787 33.1476 -0.0000 -26.2537 12.8311 -13.6009 32.1521 -43.6271 24.2611 -38.7761 -13.5617 0.0000 -45.5123 2.5283 -11.3666 12.6283 32.8623 0.0000 24.3270 -3.9465 37.3521 1.6500
-3.4316 3.7256 -3.4160 -50.6796 -13.1282 -13.1477 -41.6499 13.6956 23.5276 -2.2138 0.0000 -0.0000 25.4380 -11.1201 27.2886 -5.2369 0.0000 -0.0000 -93.0625 32.8324 9.7717 123.6808 -0.0000 -0.0000 10.0774 14.7244 -27.8580 9.8235 -0.0000 -0.0000 66.8389 -42.2054 10.3549 42.7469 -24.6261 14.7862 -32.7948 -7.0697 83.2245 -7.4284 -0.0000 -40.9436 -21.9225 -16.2266 -55.2265 33.1476 -0.0000 -26.2537 12.7809 -13.6410 32.1004 -43.6017 24.2103 -38.7852 -13.5769 0.0000 -45.4668 2.5044 -11.3145 12.5674 32.8623 0.0000 24.3270 -3.5464 37.4252 1.3405
-3.4352 3.7244 -3.4142 -50.6884 -13.1499 -13.1434 -41.6471 13.7002 23.5355 -2.2060 0.0000 -0.0000 25.4135 -11.0991 27.2638 -5.1668 0.0000 -0.0000 -93.0661 32.8295 9.7815 123.6921 -0.0000 -0.0000 10.0583 14.7205 -27.8956 9.8007 -0.0000 -0.0000 66.8191 -42.1800 10.3454 42.7620 -24.5812 14.7619 -32.7716 -7.0154 83.2273 -7.4275 -0.0000 -41.1331 -21.8510 -16.1681 -55.2240 33.1476 -0.0000 -26.2537 12.7989 -13.6270 32.0861 -43.5981 24.1409 -38.8174 -13.5899 0.0000 -45.4793 2.4967 -11.3029 12.5424 32.8623 0.0000 24.3270 -3.1628 37.3777 1.0902
-3.4375 3.7233 -3.4126 -50.6949 -13.1672 -13.1363 -41.6428 13.6933 23.5393 -2.1982 0.0000 -0.0000 25.4218 -11.1131 27.2494 -5.1949 0.0000 -0.0000 -93.0630 32.8302 9.7790 123.6925 -0.0000 -0.0000 10.0344 14.7218 -27.8559 9.7485 -0.0000 -0.0000 66.8080 -42.1416 10.3514 42.7766 -24.5563 14.7318 -32.7586 -7.0145 83.2421 -7.4430 -0.0000 -41.1764 -21.8199 -16.2120 -55.1107 33.1476 -0.0000 -26.2537 12.7937 -13.6250 32.0623 -43.5942 24.0725 -38.8511 -13.6115 0.0000 -45.4292 2.4849 -11.2907 12.4978 32.8623 0.0000 24.3270 -2.7473 37.3984 0.8386
-3.4427 3.7239 -3.4104 -50.7110 -13.1891 -13.1494 -41.6341 13.6896 23.5665 -2.1949 0.0000 -0.0000 25.4196 -11.1374 27.2628 -5.1766 0.0000 -0.0000 -93.0421 32.8051 9.7866 123.7071 -0.0000 -0.0000 9.9532 14.7089 -27.8497 9.8094 -0.0000 -0.0000 66.8297 -42.0861 10.3857 42.7477 -24.5645 14.7199 -32.7273 -6.9543 83.2373 -7.4543 0.0000 -41.2586 -21.8145 -16.2246 -55.0832 33.1476 -0.0000 -26.2537 12.7402 -13.6173 32.0112 -43.5516 23.9925 -38.8900 -13.6474 0.0000 -45.3601 2.4672 -11.2822 12.4205 32.8623 0.0000 24.3270 -2.3478 37.5740 0.6363
-3.4445 3.7224 -3.4089 -50.7083 -13.2089 -13.1454 -41.6405 13.6765 23.5757 -2.1834 0.0000 -0.0000 25.4209 -11.1591 27.2934 -5.2279 0.0000 -0.0000 -93.0644 32.8076 9.8072 123.7091 -0.0000 -0.0000 9.9618 14.7099 -27.8568 9.7604 -0.0000 -0.0000 66.8038 -42.0511 10.3946 42.7342 -24.5526 14.6872 -32.6999 -6.9437 83.2409 -7.4814 0.0000 -41.3376 -21.7615 -16.2082 -55.0374 33.1476 -0.0000 -26.2537 12.7468 -13.6185 31.9783 -43.5372 23.9303 -38.9123 -13.6847 -0.0000 -45.2787 2.4593 -11.2734 12.3910 32.8623 0.0000 24.3270 -1.8969 37.5732 0.3917
-3.4434 3.7197 -3.4084 -50.7027 -13.2133 -13.1445 -41.6551 13.6588 23.5708 -2.1609 0.0000 -0.0000 25.4187 -11.1671 27.2926 -5.2325 0.0000 -0.0000 -93.1138 32.8218 9.8200 123.7099 -0.0000 -0.0000 10.0471 14.7696 -27.8357 9.7503 -0.0000 -0.0000 66.7835 -42.0061 10.4147 42.7506 -24.5502 14.6476 -32.6963 -6.9739 83.2707 -7.5007 -0.0000 -41.3770 -21.7233 -16.2117 -54.9796 33.1476 -0.0000 -26.2537 12.7572 -13.6678 31.9667 -43.5227 23.9016 -38.9104 -13.7107 0.0000 -45.1441 2.4367 -11.2523 12.3023 32.8623 0.0000 24.3270 -1.4248 37.4777 0.1497
-3.4451 3.7200 -3.4073 -50.7176 -13.2248 -13.1468 -41.6367 13.6405 23.5788 -2.1533 0.0000 -0.0000 25.4198 -11.1903 27.2988 -5.1959 0.0000 -0.0000 -93.0767 32.8111 9.8127 123.7042 -0.0000 -0.0000 9.9857 14.7508 -27.8530 9.7752 -0.0000 -0.0000 66.7747 -41.9548 10.4183 42.7695 -24.5575 14.6410 -32.6968 -6.9499 83.2881 -7.5229 0.0000 -41.4062 -21.7251 -16.2167 -54.9740 33.1476 -0.0000 -26.2537 12.7686 -13.6984 31.9392 -43.5053 23.8266 -38.9080 -13.7262 -0.0000 -45.1004 2.4304 -11.2288 12.2964 32.8623 0.0000 24.3270 -0.9534 37.3777 -0.0893
-3.4479 3.7194 -3.4058 -50.7296 -13.2261 -13.1501 -41.6250 13.6244 23.5845 -2.1456 0.0000 -0.0000 25.4267 -11.2119 27.2896 -5.2106 0.0000 -0.0000 -93.0541 32.7933 9.7949 123.7112 -0.0000 -0.0000 9.9439 14.7428 -27.8795 9.7556 -0.0000 -0.0000 66.7600 -41.9208 10.4341 42.7898 -24.5689 14.6072 -32.6840 -6.9703 83.3182 -7.5311 0.0000 -41.4079 -21.7060 -16.2245 -54.9353 33.1476 -0.0000 -26.2537 12.7423 -13.7924 31.8564 -42.9195 23.4219 -38.9832 -13.8094 0.0000 -45.6564 2.4643 -11.2965 12.3911 32.8623 0.0000 24.3270 -0.3934 37.2820 -0.3674
-3.4506 3.7181 -3.4049 -50.7301 -13.2273 -13.1501 -41.6322 13.6282 23.5878 -2.1404 0.0000 -0.0000 25.4378 -11.2496 27.3303 -5.2181 0.0000 -0.0000 -93.0686 32.7927 9.7991 123.7152 -0.0000 -0.0000 9.9525 14.7538 -27.8368 9.7826 -0.0000 -0.0000 66.7310 -41.8958 10.4503 42.8180 -24.5773 14.5792 -32.6695 -6.9569 83.3470 -7.5155 -0.0000 -41.4794 -21.6851 -16.2026 -54.9421 33.1476 -0.0000 -26.2537 12.7435 -13.8523 31.7820 -42.6021 23.1666 -39.0044 -13.8461 0.0000 -45.9656 2.4724 -11.3338 12.3913 32.8623 0.0000 24.3270 0.1717 37.1550 -0.6383
